HIERARCHY
ROOT Hips
{
	OFFSET 0.00000 0.00000 0.00000
	CHANNELS 6 Xposition Yposition Zposition Zrotation Yrotation Xrotation 
	JOINT LHipJoint
	{
		OFFSET 0 0 0
		CHANNELS 3 Zrotation Yrotation Xrotation
		JOINT LeftHip
		{
			OFFSET 1.28858 -1.83292 1.03970
			CHANNELS 3 Zrotation Yrotation Xrotation
			JOINT LeftKnee
			{
				OFFSET 2.47846 -6.80952 0.00000
				CHANNELS 3 Zrotation Yrotation Xrotation
				JOINT LeftAnkle
				{
					OFFSET 2.75274 -7.56311 0.00000
					CHANNELS 3 Zrotation Yrotation Xrotation
					JOINT LeftToe
					{
						OFFSET 0.12848 -0.35301 1.68223
						CHANNELS 3 Zrotation Yrotation Xrotation
						End Site
						{
							OFFSET 0.00000 -0.00000 0.87311
						}
					}
				}
			}
		}
	}
	JOINT RHipJoint
	{
		OFFSET 0 0 0
		CHANNELS 3 Zrotation Yrotation Xrotation
		JOINT RightHip
		{
			OFFSET -1.31183 -1.83292 1.03970
			CHANNELS 3 Zrotation Yrotation Xrotation
			JOINT RightKnee
			{
				OFFSET -2.44740 -6.72417 0.00000
				CHANNELS 3 Zrotation Yrotation Xrotation
				JOINT RightAnkle
				{
					OFFSET -2.67343 -7.34519 0.00000
					CHANNELS 3 Zrotation Yrotation Xrotation
					JOINT RightToe
					{
						OFFSET -0.16914 -0.46471 1.77626
						CHANNELS 3 Zrotation Yrotation Xrotation
						End Site
						{
							OFFSET -0.00000 -0.00000 0.92777
						}
					}
				}
			}
		}
	}
	JOINT lowerback
	{
		OFFSET 0 0 0
		CHANNELS 3 Zrotation Yrotation Xrotation
		JOINT Chest
		{
			OFFSET 0.01249 2.14252 0.03842
			CHANNELS 3 Zrotation Yrotation Xrotation
			JOINT Chest2
			{
				OFFSET -0.02957 2.14199 -0.03751
				CHANNELS 3 Zrotation Yrotation Xrotation
				JOINT lowerneck
				{
					OFFSET 0 0 0
					CHANNELS 3 Zrotation Yrotation Xrotation
					JOINT Neck
					{
						OFFSET -0.01678 1.65709 -0.05476
						CHANNELS 3 Zrotation Yrotation Xrotation
						JOINT Head
						{
							OFFSET 0.07912 1.58331 -0.11843
							CHANNELS 3 Zrotation Yrotation Xrotation
							End Site
							{
								OFFSET 0.03298 1.73940 -0.04271
							}
						}
					}
				}
				JOINT LeftCollar
				{
					OFFSET 0 0 0
					CHANNELS 3 Zrotation Yrotation Xrotation
					JOINT LeftShoulder
					{
						OFFSET 3.39556 1.16496 0.08673
CHANNELS 3 Zrotation Xrotation Yrotation
						JOINT LeftElbow
						{
OFFSET 0 -5.239100 -0.000000
CHANNELS 3 Zrotation Xrotation Yrotation
							JOINT LeftWrist
							{
OFFSET 0 -3.314670 0.000000
CHANNELS 3 Zrotation Xrotation Yrotation
								JOINT lhand
								{
									OFFSET 0 0 0
CHANNELS 3 Zrotation Xrotation Yrotation
									JOINT LFingers
									{
OFFSET 0 -0.965900 0.000000
CHANNELS 3 Zrotation Xrotation Yrotation
										End Site
										{
OFFSET 0 -0.778730 0.000000
										}
									}
								}
								JOINT LThumb
								{
OFFSET 0 0.000000 0.000000
CHANNELS 3 Zrotation Xrotation Yrotation
									End Site
									{
OFFSET 0 -0.790620 0.790620
									}
								}
							}
						}
					}
				}
				JOINT RightCollar
				{
					OFFSET 0 0 0
					CHANNELS 3 Zrotation Yrotation Xrotation
					JOINT RightShoulder
					{
						OFFSET -3.27193 1.31331 0.33940
CHANNELS 3 Zrotation Xrotation Yrotation
						JOINT RightElbow
						{
OFFSET 0 -5.302520 0.000000
CHANNELS 3 Zrotation Xrotation Yrotation
							JOINT RightWrist
							{
OFFSET 0 -3.678750 0.000000
CHANNELS 3 Zrotation Xrotation Yrotation
								JOINT rhand
								{
									OFFSET 0 0 0
CHANNELS 3 Zrotation Xrotation Yrotation
									JOINT RFingers
									{
OFFSET 0 -0.594810 0.000000
CHANNELS 3 Zrotation Xrotation Yrotation
										End Site
										{
OFFSET 0 -0.479550 0.000000
										}
									}
								}
								JOINT RThumb
								{
OFFSET 0 0.000000 0.000000
CHANNELS 3 Zrotation Xrotation Yrotation
									End Site
									{
OFFSET 0 -0.486870 0.486870
									}
								}
							}
						}
					}
				}
			}
		}
	}
}
MOTION
Frames: 5
Frame Time: 0.008333333333333333
11.347800 27.768800 39.263400 -6.792900 5.136600 4.146200 0.000000 0.000000 0.000000 -10.982800 -5.815500 -6.808500 1.196400 6.940300 19.538600 0.360800 -19.588600 -16.662400 0.263000 3.299200 9.112800 0.000000 0.000000 0.000000 26.463000 -0.179300 -17.019600 -2.091400 -9.053900 25.964100 -0.012000 -7.293300 -10.669300 -3.155400 10.942500 -32.086200 8.697300 1.971900 4.656400 1.486700 2.903700 3.651700 -3.407300 1.614500 1.544300 -5.126700 -10.570600 0.458100 7.860200 -15.032700 13.741200 2.503000 -7.231900 5.048300 0.000000 0.000000 0.000000 10.942800 10.539600 -32.167100 15.360700 -24.646200 3.374900 8.537700 -6.110900 6.287700 0.000000 0.000000 0.000000 -7.125000 0.000000 0.000000 -13.377100 23.643400 -7.077000 0.000000 0.000000 0.000000 -8.644600 6.399100 25.120000 -36.406100 -45.790500 -15.812900 0.654300 15.741400 20.775500 0.000000 0.000000 0.000000 7.125000 0.000000 -0.000000 28.115000 48.553000 -2.659200
11.367884 27.711709 39.221975 -2.378918 5.103873 7.326418 0.000000 0.000000 0.000000 -16.015715 -7.623566 -9.672379 1.349161 7.353268 20.766251 0.559009 -19.538501 -18.092104 0.051924 1.440892 3.963328 0.000000 0.000000 0.000000 21.058654 0.755072 -20.530801 -2.100349 -9.071773 26.020388 -0.152420 -7.002330 -12.969906 -3.356348 11.247202 -33.122207 4.600621 1.870645 1.827091 0.154341 2.505097 3.186860 -2.402784 1.358947 2.449413 -5.307437 -10.044584 0.040581 7.871557 -14.326806 14.031374 2.552305 -6.877203 5.170897 0.000000 0.000000 0.000000 11.512301 10.035134 -33.752333 15.180961 -24.397583 3.300379 8.397737 -7.462649 6.527161 0.000000 0.000000 0.000000 -7.125000 0.000000 0.000000 -13.457010 23.410356 -7.196078 0.000000 0.000000 0.000000 -8.626885 6.292404 25.300825 -36.047557 -45.545752 -15.556400 0.986738 15.484632 20.024717 0.000000 0.000000 0.000000 7.125000 0.000000 0.000000 28.017139 47.843276 -2.123787
11.345327 27.685780 39.185546 -1.156853 4.954035 7.677460 0.000000 0.000000 0.000000 -16.961827 -7.608180 -10.110657 1.497802 7.730279 21.898002 0.247486 -21.124513 -16.749339 0.306389 3.550468 9.816128 0.000000 0.000000 0.000000 19.809188 1.214546 -20.963816 -2.344689 -9.549771 27.530690 -0.543251 -5.240499 -16.816456 -2.319413 9.500369 -27.374740 3.691077 1.977512 1.923187 -0.252607 2.656911 3.139980 -2.317210 1.416357 2.332384 -5.218123 -9.474197 0.077722 7.542173 -13.541366 14.525910 2.488277 -6.494771 5.232713 0.000000 0.000000 0.000000 11.993406 9.606216 -34.601615 15.357219 -24.641454 3.373504 7.353745 -6.913398 6.534463 0.000000 0.000000 0.000000 -7.125000 0.000000 0.000000 -14.210878 23.420658 -7.620384 0.000000 0.000000 0.000000 -8.250494 6.744668 24.525604 -35.547813 -45.199267 -15.200828 1.002225 15.727446 19.273962 0.000000 0.000000 0.000000 7.125000 0.000000 0.000000 27.651901 47.176511 -1.603860
11.325598 27.654834 39.141723 -0.126687 4.931226 8.049937 0.000000 0.000000 0.000000 -17.556586 -7.440418 -11.214533 1.762925 8.352438 23.790485 -0.142621 -22.366083 -14.684878 0.653036 5.165807 14.382869 0.000000 0.000000 0.000000 18.810626 1.640145 -21.118222 -2.465732 -9.775351 28.252418 -0.897893 -3.650159 -19.573909 -1.901121 8.656763 -24.727609 2.989995 1.986051 1.979704 -0.633702 2.673582 3.165232 -2.318810 1.414002 2.311493 -4.963816 -8.872990 -0.017913 7.130831 -12.703617 15.018383 2.369602 -6.080717 5.300565 0.000000 0.000000 0.000000 12.437892 8.908291 -35.083098 15.518118 -24.862907 3.440858 6.533151 -6.440588 6.735075 0.000000 0.000000 0.000000 -7.125000 0.000000 0.000000 -14.782049 23.237293 -8.011933 0.000000 0.000000 0.000000 -7.931954 6.932691 24.152171 -34.949886 -44.776179 -14.778056 1.147126 15.731235 19.320792 0.000000 0.000000 0.000000 7.125000 0.000000 0.000000 27.801853 47.198563 -1.630334
11.305868 27.626394 39.089273 0.122085 5.085305 8.250378 0.000000 0.000000 0.000000 -17.088506 -7.070297 -12.974394 2.202571 9.272919 26.655072 -0.541496 -22.982010 -11.983448 0.838599 5.841427 16.324957 0.000000 0.000000 0.000000 18.839829 1.956881 -20.745850 -2.449895 -9.746154 28.158497 -1.113788 -2.748304 -21.100690 -1.814805 8.469133 -24.148451 3.064046 1.918437 2.132511 -0.782813 2.589718 3.305258 -2.516829 1.379061 2.376052 -4.571585 -8.199361 -0.214013 6.724288 -11.773660 15.565672 2.229944 -5.611522 5.394546 0.000000 0.000000 0.000000 12.742860 7.888665 -35.049382 15.681647 -25.087047 3.509899 6.000185 -5.844394 7.012451 0.000000 0.000000 0.000000 -7.125000 0.000000 0.000000 -15.136203 22.975322 -8.312126 0.000000 0.000000 0.000000 -7.728543 6.836134 24.094889 -34.197053 -44.229806 -14.250509 1.010094 15.809594 19.899544 0.000000 0.000000 0.000000 7.125000 0.000000 0.000000 27.973531 47.729393 -2.035424
